<svg id="Layer_2" enable-background="new 0 0 64 64" height="512" viewBox="0 0 64 64" width="512" xmlns="http://www.w3.org/2000/svg"><g fill="#edeff1"><path d="m32 63v-2c15.991 0 29-13.009 29-29s-13.009-29-29-29-29 13.009-29 29h-2c0-17.093 13.907-31 31-31s31 13.907 31 31-13.907 31-31 31z"/><path d="m32 57c-13.785 0-25-11.215-25-25s11.215-25 25-25v2c-12.682 0-23 10.318-23 23s10.318 23 23 23 23-10.318 23-23h2c0 13.785-11.215 25-25 25z"/><path d="m32 50c-9.925 0-18-8.075-18-18s8.075-18 18-18 18 8.075 18 18-8.075 18-18 18zm0-34c-8.822 0-16 7.178-16 16s7.178 16 16 16 16-7.178 16-16-7.178-16-16-16z"/></g><path d="m45 28.455c0-1.018-.129-2.004-.35-2.955-.531 2.281-1.668 4.325-3.222 5.971-.28-6.933-5.972-12.471-12.973-12.471-1.018 0-2.004.129-2.955.35 2.281.531 4.325 1.668 5.971 3.222-6.933.28-12.471 5.972-12.471 12.973 0 1.018.129 2.004.35 2.955.531-2.281 1.668-4.325 3.222-5.971.28 6.933 5.972 12.471 12.973 12.471 1.018 0 2.004-.129 2.955-.35-2.281-.531-4.325-1.668-5.971-3.222 6.933-.28 12.471-5.972 12.471-12.973z" fill="#6e83b7"/><circle cx="32" cy="32" fill="#466089" r="6"/><circle cx="54" cy="23" fill="#ffe352" r="3"/><circle cx="24" cy="47" fill="#ffe352" r="3"/><circle cx="41" cy="55" fill="#ffb0aa" r="3"/><circle cx="45" cy="5" fill="#80d6fb" r="3"/><circle cx="21" cy="11" fill="#98ca69" r="3"/><circle cx="9" cy="39" fill="#80d6fb" r="2"/><circle cx="59" cy="45" fill="#98ca69" r="2"/><circle cx="40" cy="17" fill="#ffb0aa" r="2"/><path d="m5.538 7.513-1.538-.513 1.538-.513c.448-.149.799-.501.949-.949l.513-1.538.513 1.538c.149.448.501.799.949.949l1.538.513-1.538.513c-.448.149-.8.501-.949.949l-.513 1.538-.513-1.538c-.149-.448-.501-.8-.949-.949z" fill="#ffe352"/><path d="m57.538 5.513-1.538-.513 1.538-.513c.448-.149.799-.501.949-.949l.513-1.538.513 1.538c.149.448.501.799.949.949l1.538.513-1.538.513c-.448.149-.799.501-.949.949l-.513 1.538-.513-1.538c-.149-.448-.501-.8-.949-.949z" fill="#6e83b7"/><path d="m11.538 23.513-1.538-.513 1.538-.513c.448-.149.799-.501.949-.949l.513-1.538.513 1.538c.149.448.501.799.949.949l1.538.513-1.538.513c-.448.149-.799.501-.949.949l-.513 1.538-.513-1.538c-.149-.448-.501-.8-.949-.949z" fill="#ffe352"/><path d="m10.538 59.513-1.538-.513 1.538-.513c.448-.149.799-.501.949-.949l.513-1.538.513 1.538c.149.448.501.799.949.949l1.538.513-1.538.513c-.448.149-.799.501-.949.949l-.513 1.538-.513-1.538c-.149-.448-.501-.8-.949-.949z" fill="#ffe352"/><path d="m56.026 59.342-1.026-.342 1.026-.342c.299-.1.533-.334.632-.632l.342-1.026.342 1.026c.1.299.334.533.632.632l1.026.342-1.026.342c-.299.1-.533.334-.632.632l-.342 1.026-.342-1.026c-.099-.298-.334-.533-.632-.632z" fill="#ffe352"/><path d="m47.026 14.342-1.026-.342 1.026-.342c.299-.1.533-.334.632-.632l.342-1.026.342 1.026c.1.299.334.533.632.632l1.026.342-1.026.342c-.299.1-.533.334-.632.632l-.342 1.026-.342-1.026c-.099-.298-.334-.533-.632-.632z" fill="#6e83b7"/><path d="m45.026 41.342-1.026-.342 1.026-.342c.299-.1.533-.334.632-.632l.342-1.026.342 1.026c.1.299.334.533.632.632l1.026.342-1.026.342c-.299.1-.533.334-.632.632l-.342 1.026-.342-1.026c-.099-.298-.334-.533-.632-.632z" fill="#80d6fb"/><path d="m5.026 52.342-1.026-.342 1.026-.342c.299-.1.533-.334.632-.632l.342-1.026.342 1.026c.1.299.334.533.632.632l1.026.342-1.026.342c-.299.1-.533.334-.632.632l-.342 1.026-.342-1.026c-.099-.298-.334-.533-.632-.632z" fill="#ffb0aa"/></svg>